<?xml version="1.0" encoding="utf-8"?>
<!-- Generator: Adobe Illustrator 16.0.0, SVG Export Plug-In . SVG Version: 6.00 Build 0)  -->
<!DOCTYPE svg PUBLIC "-//W3C//DTD SVG 1.1//EN" "http://www.w3.org/Graphics/SVG/1.1/DTD/svg11.dtd">
<svg version="1.1" id="Layer_1" xmlns="http://www.w3.org/2000/svg" xmlns:xlink="http://www.w3.org/1999/xlink" x="0px" y="0px"
	 width="1000px" height="773.498px" viewBox="0 0 1000 773.498" enable-background="new 0 0 1000 773.498" xml:space="preserve">
<g>
	<g>
		<defs>
			<path id="SVGID_1_" d="M508.756,105.755l-0.764,3.562l-50.544,28.155l19.547,5.087l0.255,20.61
				c20.141,20.778,41.215,45.539,46.898,64.451c0.168,0.172,141.797-67.674,148.75-70.983l-2.628-3.899
				c-0.509-0.596-46.813-69.203-100.073-77.176c-4.749-0.676-9.328-1.101-13.568-1.101
				C516.854,74.462,508.841,105.415,508.756,105.755"/>
		</defs>
		<clipPath id="SVGID_2_">
			<use xlink:href="#SVGID_1_"  overflow="visible"/>
		</clipPath>
		
			<linearGradient id="SVGID_3_" gradientUnits="userSpaceOnUse" x1="318.2637" y1="586.7017" x2="405.1164" y2="586.7017" gradientTransform="matrix(-2.9173 -3.6258 -3.6258 2.9173 3705.2786 -301.6477)">
			<stop  offset="0" style="stop-color:#FFFFFF"/>
			<stop  offset="0.0243" style="stop-color:#FFFFFF"/>
			<stop  offset="0.0649" style="stop-color:#E8E8E8"/>
			<stop  offset="0.169" style="stop-color:#B2B2B2"/>
			<stop  offset="0.2771" style="stop-color:#838383"/>
			<stop  offset="0.3869" style="stop-color:#5A5A5A"/>
			<stop  offset="0.4989" style="stop-color:#3A3A3A"/>
			<stop  offset="0.6136" style="stop-color:#202020"/>
			<stop  offset="0.7324" style="stop-color:#0E0E0E"/>
			<stop  offset="0.8575" style="stop-color:#030303"/>
			<stop  offset="1" style="stop-color:#000000"/>
		</linearGradient>
		<polygon clip-path="url(#SVGID_2_)" fill="url(#SVGID_3_)" points="542.127,333.035 382.564,134.674 588.178,-30.785 
			747.783,167.492 		"/>
	</g>
	<g>
		<defs>
			<polygon id="SVGID_4_" points="335.156,142.731 372.684,147.227 406.479,124.496 406.479,125.344 406.564,124.155 
				457.448,137.472 507.992,109.317 418.648,82.688 			"/>
		</defs>
		<clipPath id="SVGID_5_">
			<use xlink:href="#SVGID_4_"  overflow="visible"/>
		</clipPath>
		
			<linearGradient id="SVGID_6_" gradientUnits="userSpaceOnUse" x1="-39.0688" y1="839.6606" x2="47.7743" y2="839.6606" gradientTransform="matrix(0.6735 1.5123 1.5123 -0.6735 -854.572 666.2376)">
			<stop  offset="0" style="stop-color:#FFFFFF"/>
			<stop  offset="0.0664" style="stop-color:#FFFFFF"/>
			<stop  offset="0.24" style="stop-color:#BDBDBD"/>
			<stop  offset="0.4327" style="stop-color:#7A7A7A"/>
			<stop  offset="0.6077" style="stop-color:#464646"/>
			<stop  offset="0.7585" style="stop-color:#202020"/>
			<stop  offset="0.8793" style="stop-color:#090909"/>
			<stop  offset="0.9549" style="stop-color:#000000"/>
			<stop  offset="1" style="stop-color:#000000"/>
		</linearGradient>
		<polygon clip-path="url(#SVGID_5_)" fill="url(#SVGID_6_)" points="479.371,18.404 531.95,136.54 363.777,211.422 311.198,93.371 
					"/>
	</g>
	<g>
		<defs>
			<path id="SVGID_7_" d="M305.982,122.206c-0.763,0.848-74.418,93.883-25.356,227.368
				c46.559,126.957,156.765,136.792,189.501,136.792c17.47,0,33.54-2.289,46.981-6.7l146.378-56.818
				c-10.688,2.714-21.881,4.155-34.178,4.155c-19.931,0-41.642-3.815-64.623-11.108
				c-106.263-37.061-139.549-147.058-139.889-148.075l-1.229-4.579v-0.084l-83.874,38.333l-8.354-49.104l74.334-51.307l-0.679-0.256
				l1.483-75.479v-0.849l-80.608,53.768l8.862-35.28l83.916-60.296l1.187-3.479c0.17-0.508,5.472-14.246,17.472-27.902
				c10.049-10.091,20.396-18.485,30.827-25.609C417.419,56.058,307.636,121.021,305.982,122.206"/>
		</defs>
		<clipPath id="SVGID_8_">
			<use xlink:href="#SVGID_7_"  overflow="visible"/>
		</clipPath>
		
			<linearGradient id="SVGID_9_" gradientUnits="userSpaceOnUse" x1="194.3857" y1="725.4087" x2="281.2288" y2="725.4087" gradientTransform="matrix(2.8684 5.3327 5.3327 -2.8684 -4106.2964 1062.4139)">
			<stop  offset="0" style="stop-color:#FFFFFF"/>
			<stop  offset="0.2022" style="stop-color:#D2D3D3"/>
			<stop  offset="0.3054" style="stop-color:#C0C1C2"/>
			<stop  offset="0.4057" style="stop-color:#BDBEBF"/>
			<stop  offset="0.4879" style="stop-color:#B3B4B5"/>
			<stop  offset="0.5636" style="stop-color:#A2A3A3"/>
			<stop  offset="0.6356" style="stop-color:#8A8B8B"/>
			<stop  offset="0.7048" style="stop-color:#6B6C6C"/>
			<stop  offset="0.772" style="stop-color:#454546"/>
			<stop  offset="0.8364" style="stop-color:#191919"/>
			<stop  offset="0.8688" style="stop-color:#000000"/>
			<stop  offset="1" style="stop-color:#000000"/>
		</linearGradient>
		<polygon clip-path="url(#SVGID_8_)" fill="url(#SVGID_9_)" points="566.637,-154.52 855.743,382.989 328.498,666.583 
			39.393,129.075 		"/>
	</g>
	<g>
		<defs>
			<path id="SVGID_10_" d="M437.307,51.307c-12,13.657-17.302,27.394-17.472,27.902l-1.187,3.479l89.344,26.629l0.764-3.562
				c0.085-0.34,8.098-31.293,47.873-31.293c4.24,0,8.819,0.424,13.568,1.101c53.26,7.973,99.564,76.58,100.073,77.176l2.714,4.155
				l37.993-51.223l-1.356-1.953C706.737,99.395,638.722,0,546.367,0C508.5,0,471.78,17.215,437.307,51.307"/>
		</defs>
		<clipPath id="SVGID_11_">
			<use xlink:href="#SVGID_10_"  overflow="visible"/>
		</clipPath>
		
			<linearGradient id="SVGID_12_" gradientUnits="userSpaceOnUse" x1="257.8633" y1="766.5532" x2="344.6466" y2="766.5532" gradientTransform="matrix(6.3318 3.3345 3.3345 -6.3318 -3739.4163 4011.5317)">
			<stop  offset="0" style="stop-color:#FFFFFF"/>
			<stop  offset="0.124" style="stop-color:#FBFBFB"/>
			<stop  offset="0.2493" style="stop-color:#EFEFEF"/>
			<stop  offset="0.3754" style="stop-color:#DBDBDB"/>
			<stop  offset="0.502" style="stop-color:#BEBEBE"/>
			<stop  offset="0.629" style="stop-color:#999999"/>
			<stop  offset="0.7563" style="stop-color:#6D6D6D"/>
			<stop  offset="0.8815" style="stop-color:#383838"/>
			<stop  offset="1" style="stop-color:#000000"/>
		</linearGradient>
		<polygon clip-path="url(#SVGID_11_)" fill="url(#SVGID_12_)" points="482.085,-120.509 775.602,34.091 647.457,277.402 
			353.94,122.886 		"/>
	</g>
	<g>
		<defs>
			<polygon id="SVGID_13_" points="404.995,200.823 478.183,214.9 478.311,214.816 476.995,142.56 406.564,124.155 			"/>
		</defs>
		<clipPath id="SVGID_14_">
			<use xlink:href="#SVGID_13_"  overflow="visible"/>
		</clipPath>
		
			<linearGradient id="SVGID_15_" gradientUnits="userSpaceOnUse" x1="257.9102" y1="747.4897" x2="344.8053" y2="747.4897" gradientTransform="matrix(6.3329 3.335 3.335 -6.3329 -3740.8425 4013.5894)">
			<stop  offset="0" style="stop-color:#FFFFFF"/>
			<stop  offset="0.0971" style="stop-color:#F9F9F9"/>
			<stop  offset="0.2212" style="stop-color:#EAEAEA"/>
			<stop  offset="0.36" style="stop-color:#CFCFCF"/>
			<stop  offset="0.5095" style="stop-color:#ABABAB"/>
			<stop  offset="0.6677" style="stop-color:#7C7C7C"/>
			<stop  offset="0.8331" style="stop-color:#424242"/>
			<stop  offset="1" style="stop-color:#000000"/>
		</linearGradient>
		<polygon clip-path="url(#SVGID_14_)" fill="url(#SVGID_15_)" points="420.896,93.967 515.751,143.917 462.365,245.176 
			367.594,195.227 		"/>
	</g>
	<g>
		<defs>
			<path id="SVGID_16_" d="M424.797,267.819c0.34,1.017,33.626,111.014,139.889,148.075c22.981,7.293,44.692,11.108,64.623,11.108
				c34.686,0,63.351-11.364,85.062-34.007c8.734-10.263,12.212-19.169,12.382-19.505l0.593-1.613l-42.318-58.94l-2.714,3.307
				c-0.338,0.256-26.289,29.259-48.34,32.313c-3.223,0.593-6.785,0.845-10.686,0.845c-21.37,0-75.479-7.717-119.916-77.937
				l-0.765-1.441l-1.653-0.168c-31.759-5.091-72.254-6.532-72.595-6.532l-4.791-0.168L424.797,267.819z"/>
		</defs>
		<clipPath id="SVGID_17_">
			<use xlink:href="#SVGID_16_"  overflow="visible"/>
		</clipPath>
		
			<linearGradient id="SVGID_18_" gradientUnits="userSpaceOnUse" x1="260.2305" y1="730.356" x2="347.0766" y2="730.356" gradientTransform="matrix(6.926 3.6474 3.6474 -6.926 -4126.9009 4329.981)">
			<stop  offset="0" style="stop-color:#FFFFFF"/>
			<stop  offset="0.1204" style="stop-color:#FBFBFB"/>
			<stop  offset="0.2453" style="stop-color:#EEEEEE"/>
			<stop  offset="0.3723" style="stop-color:#DADADA"/>
			<stop  offset="0.5008" style="stop-color:#BCBCBC"/>
			<stop  offset="0.6305" style="stop-color:#979797"/>
			<stop  offset="0.7611" style="stop-color:#696969"/>
			<stop  offset="0.8901" style="stop-color:#343434"/>
			<stop  offset="1" style="stop-color:#000000"/>
		</linearGradient>
		<polygon clip-path="url(#SVGID_17_)" fill="url(#SVGID_18_)" points="489.548,137.896 794.937,298.688 661.451,552.262 
			356.019,391.382 		"/>
	</g>
	<g>
		<defs>
			<polygon id="SVGID_19_" points="334.732,142.984 325.87,178.264 372.684,147.227 335.156,142.731 			"/>
		</defs>
		<clipPath id="SVGID_20_">
			<use xlink:href="#SVGID_19_"  overflow="visible"/>
		</clipPath>
		
			<linearGradient id="SVGID_21_" gradientUnits="userSpaceOnUse" x1="-20.5674" y1="671.9087" x2="66.2092" y2="671.9087" gradientTransform="matrix(0.012 1.8013 1.8013 -0.012 -861.2815 130.2202)">
			<stop  offset="0" style="stop-color:#FFFFFF"/>
			<stop  offset="0.0727" style="stop-color:#F3F3F3"/>
			<stop  offset="0.2043" style="stop-color:#D3D3D3"/>
			<stop  offset="0.3798" style="stop-color:#9F9F9F"/>
			<stop  offset="0.5927" style="stop-color:#585858"/>
			<stop  offset="0.8284" style="stop-color:#000000"/>
			<stop  offset="1" style="stop-color:#000000"/>
		</linearGradient>
		<polygon clip-path="url(#SVGID_20_)" fill="url(#SVGID_21_)" points="372.684,142.476 372.938,178.264 325.87,178.604 
			325.658,142.731 		"/>
	</g>
	<g>
		<defs>
			<polygon id="SVGID_22_" points="335.156,142.731 372.684,147.227 406.479,124.496 406.479,125.344 406.564,124.155 
				457.448,137.472 507.908,109.317 418.648,82.688 			"/>
		</defs>
		<clipPath id="SVGID_23_">
			<use xlink:href="#SVGID_22_"  overflow="visible"/>
		</clipPath>
		
			<linearGradient id="SVGID_24_" gradientUnits="userSpaceOnUse" x1="-39.0317" y1="839.6372" x2="47.7636" y2="839.6372" gradientTransform="matrix(0.6735 1.5123 1.5123 -0.6735 -854.5668 666.2275)">
			<stop  offset="0" style="stop-color:#FFFFFF"/>
			<stop  offset="0.0664" style="stop-color:#FFFFFF"/>
			<stop  offset="0.24" style="stop-color:#BDBDBD"/>
			<stop  offset="0.4327" style="stop-color:#7A7A7A"/>
			<stop  offset="0.6077" style="stop-color:#464646"/>
			<stop  offset="0.7585" style="stop-color:#202020"/>
			<stop  offset="0.8793" style="stop-color:#090909"/>
			<stop  offset="0.9549" style="stop-color:#000000"/>
			<stop  offset="1" style="stop-color:#000000"/>
		</linearGradient>
		<polygon clip-path="url(#SVGID_23_)" fill="url(#SVGID_24_)" points="479.327,18.488 531.866,136.54 363.777,211.422 
			311.198,93.371 		"/>
	</g>
	<g>
		<defs>
			<path id="SVGID_25_" d="M331.34,252.385l64.793,8.734c0,0,80.862-45.455,82.05-46.219l-72.509-13.821L331.34,252.385z"/>
		</defs>
		<clipPath id="SVGID_26_">
			<use xlink:href="#SVGID_25_"  overflow="visible"/>
		</clipPath>
		
			<linearGradient id="SVGID_27_" gradientUnits="userSpaceOnUse" x1="73.9976" y1="790.2202" x2="160.826" y2="790.2202" gradientTransform="matrix(1.1701 1.9352 1.9352 -1.1701 -1288.509 884.4076)">
			<stop  offset="0" style="stop-color:#FFFFFF"/>
			<stop  offset="0.1251" style="stop-color:#FBFBFB"/>
			<stop  offset="0.2361" style="stop-color:#F1F1F1"/>
			<stop  offset="0.3418" style="stop-color:#DEDEDE"/>
			<stop  offset="0.4442" style="stop-color:#C5C5C5"/>
			<stop  offset="0.5444" style="stop-color:#A4A4A4"/>
			<stop  offset="0.6428" style="stop-color:#7B7B7B"/>
			<stop  offset="0.7397" style="stop-color:#4B4B4B"/>
			<stop  offset="0.8333" style="stop-color:#151515"/>
			<stop  offset="0.8667" style="stop-color:#000000"/>
			<stop  offset="1" style="stop-color:#000000"/>
		</linearGradient>
		<polygon clip-path="url(#SVGID_26_)" fill="url(#SVGID_27_)" points="438.876,136.031 504.812,245.008 370.648,326.167 
			304.754,217.105 		"/>
	</g>
	<g>
		<defs>
			<polygon id="SVGID_28_" points="339.693,301.49 399.439,274.18 396.133,261.119 331.34,252.385 			"/>
		</defs>
		<clipPath id="SVGID_29_">
			<use xlink:href="#SVGID_28_"  overflow="visible"/>
		</clipPath>
		
			<linearGradient id="SVGID_30_" gradientUnits="userSpaceOnUse" x1="-55.0024" y1="765.4819" x2="31.8638" y2="765.4819" gradientTransform="matrix(0.3447 1.1443 1.1443 -0.3447 -507.8524 549.7388)">
			<stop  offset="0" style="stop-color:#FFFFFF"/>
			<stop  offset="0.0577" style="stop-color:#EAEAEA"/>
			<stop  offset="0.2909" style="stop-color:#989898"/>
			<stop  offset="0.4976" style="stop-color:#575757"/>
			<stop  offset="0.67" style="stop-color:#282828"/>
			<stop  offset="0.8018" style="stop-color:#0B0B0B"/>
			<stop  offset="0.8772" style="stop-color:#000000"/>
			<stop  offset="1" style="stop-color:#000000"/>
		</linearGradient>
		<polygon clip-path="url(#SVGID_29_)" fill="url(#SVGID_30_)" points="393.758,233.557 413.009,297.419 337.021,320.314 
			317.771,256.456 		"/>
	</g>
	<g>
		<defs>
			<path id="SVGID_31_" d="M599.966,346.604v0.172c9.582,2.033,17.64,2.714,23.321,2.714c3.9,0,7.633-0.34,10.855-0.849
				c21.881-3.138,47.832-32.142,48.17-32.397l2.714-3.307C681.464,315.143,619.133,349.49,599.966,346.604"/>
		</defs>
		<clipPath id="SVGID_32_">
			<use xlink:href="#SVGID_31_"  overflow="visible"/>
		</clipPath>
		
			<linearGradient id="SVGID_33_" gradientUnits="userSpaceOnUse" x1="352.3442" y1="806.7114" x2="439.1694" y2="806.7114" gradientTransform="matrix(2.5789 0 0 -2.5789 -369.267 2411.6873)">
			<stop  offset="0" style="stop-color:#FFFFFF"/>
			<stop  offset="0.0153" style="stop-color:#FAFAFA"/>
			<stop  offset="0.2995" style="stop-color:#A3A3A3"/>
			<stop  offset="0.5497" style="stop-color:#5D5D5D"/>
			<stop  offset="0.7568" style="stop-color:#2B2B2B"/>
			<stop  offset="0.9129" style="stop-color:#0C0C0C"/>
			<stop  offset="1" style="stop-color:#000000"/>
		</linearGradient>
		<rect x="599.966" y="313.022" clip-path="url(#SVGID_32_)" fill="url(#SVGID_33_)" width="85.061" height="36.468"/>
	</g>
	<g>
		<defs>
			<path id="SVGID_34_" d="M331.34,252.385l64.793,8.734c0,0,80.862-45.455,82.05-46.219l-72.509-13.821L331.34,252.385z"/>
		</defs>
		<clipPath id="SVGID_35_">
			<use xlink:href="#SVGID_34_"  overflow="visible"/>
		</clipPath>
		
			<linearGradient id="SVGID_36_" gradientUnits="userSpaceOnUse" x1="73.9976" y1="790.2202" x2="160.826" y2="790.2202" gradientTransform="matrix(1.1701 1.9352 1.9352 -1.1701 -1288.509 884.4076)">
			<stop  offset="0" style="stop-color:#FFFFFF"/>
			<stop  offset="0.1251" style="stop-color:#FBFBFB"/>
			<stop  offset="0.2361" style="stop-color:#F1F1F1"/>
			<stop  offset="0.3418" style="stop-color:#DEDEDE"/>
			<stop  offset="0.4442" style="stop-color:#C5C5C5"/>
			<stop  offset="0.5444" style="stop-color:#A4A4A4"/>
			<stop  offset="0.6428" style="stop-color:#7B7B7B"/>
			<stop  offset="0.7397" style="stop-color:#4B4B4B"/>
			<stop  offset="0.8333" style="stop-color:#151515"/>
			<stop  offset="0.8667" style="stop-color:#000000"/>
			<stop  offset="1" style="stop-color:#000000"/>
		</linearGradient>
		<polygon clip-path="url(#SVGID_35_)" fill="url(#SVGID_36_)" points="438.876,136.031 504.812,245.008 370.648,326.167 
			304.754,217.105 		"/>
	</g>
	<polygon points="126.955,737.566 151.549,737.566 151.549,745.452 136.327,745.452 136.327,751.728 149.006,751.728 
		149.006,759.189 136.327,759.189 136.327,764.789 152.228,764.789 152.228,772.589 126.955,772.589 	"/>
	<path d="M193.741,755.122v17.468h-8.863v-35.531c0-0.257,0.17-0.513,0.765-0.088l22.006,18.151v-17.556h8.736v35.532
		c0,0.424-0.086,0.596-0.679,0.084L193.741,755.122"/>
	<polygon points="257.982,745.452 248.696,745.452 248.696,737.566 276.597,737.566 276.597,745.452 267.395,745.452 
		267.395,772.674 257.982,772.674 	"/>
	<polygon points="308.993,737.566 333.545,737.566 333.545,745.452 318.449,745.452 318.449,751.728 330.958,751.728 
		330.958,759.189 318.449,759.189 318.449,764.789 334.266,764.789 334.266,772.589 308.993,772.589 	"/>
	<path d="M394.86,772.674h-10.177l-4.833-9.751h-3.563v9.751h-9.286v-35.108h13.187c9.456,0,14.756,6.021,14.756,13.821
		c0,4.92-2.161,7.293-6.232,9.583L394.86,772.674 M379.765,755.458c4.24,0,5.81-1.525,5.81-4.579c0-3.391-1.569-5.428-5.81-5.428
		h-3.477v10.007H379.765z"/>
	<polygon points="434.889,745.452 425.603,745.452 425.603,737.566 453.546,737.566 453.546,745.452 444.176,745.452 
		444.176,772.674 434.889,772.674 	"/>
	<path d="M487.002,772.589h-9.2l17.088-35.704c0.086-0.34,0.466-0.34,0.636,0l16.92,35.704h-9.627l-1.398-4.323h-13.188
		L487.002,772.589 M494.721,754.442l-3.478,6.868h7.038L494.721,754.442z"/>
	<rect x="544.078" y="737.566" width="9.412" height="34.939"/>
	<path d="M596.657,755.122v17.468h-8.819v-35.531c0-0.257,0.17-0.513,0.678-0.088l22.051,18.151v-17.556h8.82v35.532
		c0,0.424-0.17,0.596-0.679,0.084L596.657,755.122"/>
	<path d="M654.666,737.142c0.17-0.341,0.339-0.257,0.509,0l16.791,18.824l16.623-18.824c0.17-0.257,0.339-0.341,0.425,0
		l1.949,35.447h-9.158l-0.849-15.01l-8.736,10.175c-0.168,0.088-0.338,0.088-0.424,0l-9.158-10.175l-0.849,15.01h-9.158
		L654.666,737.142"/>
	<polygon points="724.207,737.566 748.801,737.566 748.801,745.452 733.537,745.452 733.537,751.728 746.258,751.728 
		746.258,759.189 733.537,759.189 733.537,764.789 749.479,764.789 749.479,772.589 724.207,772.589 	"/>
	<path d="M790.949,755.122v17.468h-8.733v-35.531c0-0.257,0-0.513,0.679-0.088l22.049,18.151v-17.556h8.651v35.532
		c0,0.424-0.17,0.596-0.681,0.084L790.949,755.122"/>
	<polygon points="855.318,745.452 845.99,745.452 845.99,737.566 873.976,737.566 873.976,745.452 864.646,745.452 864.646,772.674 
		855.318,772.674 	"/>
	<path d="M52.028,685.323C23.958,685.323,0,664.122,0,634.017c0-30.192,23.788-51.139,50.544-51.139
		c21.626,0,34.813,9.074,43.167,21.454l-20.1,13.653c-3.814-5.936-9.965-11.872-22.644-11.872
		c-14.672,0-23.618,12.213-23.618,27.903c0,15.774,9.287,27.986,24.467,27.986c13.061,0,19.293-5.768,23.534-13.741l20.607,13.229
		C86.121,678.115,72.254,685.323,52.028,685.323"/>
	<polygon points="228.978,584.063 255.735,584.063 255.735,683.966 228.978,683.966 228.978,647.162 194.334,647.162 
		194.334,683.966 167.494,683.966 167.494,584.063 194.334,584.063 194.334,624.687 228.978,624.687 	"/>
	<polygon points="334.436,584.063 404.571,584.063 404.571,606.539 361.149,606.539 361.149,624.687 397.278,624.687 
		397.278,645.973 361.149,645.973 361.149,661.492 406.606,661.492 406.606,683.966 334.436,683.966 	"/>
	<path d="M560.529,683.882h-28.834l-13.907-25.441h-10.051v25.441h-26.713v-99.903h37.951c26.798,0,41.894,16.964,41.894,39.183
		c0,14.417-6.276,23.407-17.979,29.852L560.529,683.882 M517.618,637.067c12.042,0,16.367-4.154,16.367-13.905
		c0-9.583-4.325-16.623-16.367-16.623h-9.881v30.528H517.618z"/>
	<path d="M659.924,634.017v49.949h-25.103V582.623c0-0.849,0.424-1.525,2.035-0.253l62.758,51.647v-50.038h25.101v101.429
		c0,1.104-0.508,1.612-2.033,0.256L659.924,634.017"/>
	<rect x="803.926" y="583.979" width="26.799" height="99.987"/>
	<path d="M935.206,634.017v49.949h-25.103V582.623c0-0.849,0.34-1.525,2.035-0.253l62.672,51.647v-50.038H1000v101.429
		c0,1.104-0.509,1.612-2.036,0.256L935.206,634.017"/>
</g>
</svg>
